M48
METRIC,LZ,000.000
;FILE_FORMAT=3:3
;TYPE=PLATED
;Layer: PTH_Through
;EasyEDA v6.5.22, 2022-12-08 11:34:22
;ba10e971585544e28f5e26b8275f6fe8,362fd913e7484c3682bebf37a00ceee6,10
;Gerber Generator version 0.2
;Holesize 1 = 0.600 mm
T01C0.600
;Holesize 2 = 0.711 mm
T02C0.711
;Holesize 3 = 0.712 mm
T03C0.712
;Holesize 4 = 0.915 mm
T04C0.915
%
G05
G90
T01
X138460Y066000
X143540Y066000
T02
X161000Y088000
X161000Y085460
X108000Y069000
X118160Y069000
X153000Y052000
X163160Y052000
X108000Y044000
X118160Y044000
X131254Y082318
X128714Y082318
X126174Y082318
X123634Y082318
X121094Y082318
X118554Y082318
X128000Y090000
X125460Y090000
X153000Y041000
X155540Y041000
X108000Y060000
X108000Y065080
X178000Y051000
X180540Y051000
X113000Y053000
X115540Y053000
X184000Y062460
X184000Y065000
X184000Y067540
X184000Y070080
X116000Y063000
X118540Y063000
X121080Y063000
X123620Y063000
X126160Y063000
X128700Y063000
X110899Y034899
X113000Y034899
X115101Y034899
X115101Y039101
X113000Y039101
X110899Y039101
X165899Y044899
X168000Y044899
X170101Y044899
X170101Y049101
X168000Y049101
X165899Y049101
X143000Y090000
X132840Y090000
X143954Y071000
X146494Y071000
X149034Y071000
X143954Y085000
T03
X118554Y074698
X121094Y074698
X123634Y074698
X126174Y074698
X128714Y074698
X131254Y074698
X133794Y074698
X136334Y074698
X138874Y074698
X141414Y074698
X143954Y074698
X146494Y074698
X149034Y074698
X151574Y074698
X151574Y082318
X149034Y082318
X146494Y082318
X143954Y082318
X141414Y082318
X138874Y082318
X136334Y082318
X133794Y082318
X143822Y057959
X143822Y060499
X138822Y057959
X138822Y060499
X160110Y063190
X162650Y063190
X165190Y063190
X167730Y063190
X170270Y063190
X172810Y063190
X175350Y063190
X177890Y063190
X177890Y070810
X175350Y070810
X172810Y070810
X170270Y070810
X167730Y070810
X165190Y070810
X162650Y070810
X160110Y070810
T04
X123000Y036000
X125540Y036000
M30
