G04 Layer: BottomSolderMaskLayer*
G04 EasyEDA v6.5.22, 2022-12-08 11:34:22*
G04 ba10e971585544e28f5e26b8275f6fe8,362fd913e7484c3682bebf37a00ceee6,10*
G04 Gerber Generator version 0.2*
G04 Scale: 100 percent, Rotated: No, Reflected: No *
G04 Dimensions in millimeters *
G04 leading zeros omitted , absolute positions ,4 integer and 5 decimal *
%FSLAX45Y45*%
%MOMM*%

%AMMACRO1*1,1,$1,$2,$3*1,1,$1,$4,$5*1,1,$1,0-$2,0-$3*1,1,$1,0-$4,0-$5*20,1,$1,$2,$3,$4,$5,0*20,1,$1,$4,$5,0-$2,0-$3,0*20,1,$1,0-$2,0-$3,0-$4,0-$5,0*20,1,$1,0-$4,0-$5,$2,$3,0*4,1,4,$2,$3,$4,$5,0-$2,0-$3,0-$4,0-$5,$2,$3,0*%
%ADD10C,2.2032*%
%ADD11C,1.9532*%
%ADD12MACRO1,0.2032X-0.9X0.6985X0.9X0.6985*%
%ADD13C,2.0032*%
%ADD14C,2.1032*%
%ADD15MACRO1,0.2032X-1X-1X-1X1*%
%ADD16MACRO1,0.2032X-0.9X0.762X0.9X0.762*%
%ADD17C,2.3032*%
%ADD18C,1.9016*%

%LPD*%
D10*
G01*
X16099993Y8800007D03*
G01*
X16099993Y8545982D03*
G01*
X10800003Y6899986D03*
G01*
X11816003Y6899986D03*
D11*
G01*
X15300020Y5199989D03*
G01*
X16316020Y5199989D03*
D10*
G01*
X10800003Y4400016D03*
G01*
X11816003Y4400016D03*
D12*
G01*
X11855399Y7469809D03*
D13*
G01*
X12109399Y7469809D03*
G01*
X12363399Y7469809D03*
G01*
X12617399Y7469809D03*
G01*
X12871399Y7469809D03*
G01*
X13125399Y7469809D03*
G01*
X13379399Y7469809D03*
G01*
X13633399Y7469809D03*
G01*
X13887399Y7469809D03*
G01*
X14141399Y7469809D03*
G01*
X14395399Y7469809D03*
G01*
X14649399Y7469809D03*
G01*
X14903399Y7469809D03*
G01*
X15157399Y7469809D03*
G01*
X15157399Y8231809D03*
G01*
X14903399Y8231809D03*
G01*
X14649399Y8231809D03*
G01*
X14395399Y8231809D03*
G01*
X14141399Y8231809D03*
G01*
X13887399Y8231809D03*
G01*
X13633399Y8231809D03*
G01*
X13379399Y8231809D03*
G01*
X13125399Y8231809D03*
G01*
X12871399Y8231809D03*
G01*
X12617399Y8231809D03*
G01*
X12363399Y8231809D03*
G01*
X12109399Y8231809D03*
G01*
X11855399Y8231809D03*
D14*
G01*
X12300000Y3600018D03*
G01*
X12554000Y3600018D03*
D10*
G01*
X12799999Y8999981D03*
G01*
X12545999Y8999981D03*
D14*
G01*
X15300020Y4099991D03*
G01*
X15554020Y4099991D03*
D15*
G01*
X10800003Y5999988D03*
G01*
X10800003Y6507988D03*
D13*
G01*
X14382216Y5795848D03*
G01*
X14382216Y6049848D03*
G01*
X13882217Y5795848D03*
G01*
X13882217Y6049848D03*
D10*
G01*
X17799989Y5099989D03*
G01*
X18054015Y5099989D03*
G01*
X11300002Y5299989D03*
G01*
X11554028Y5299989D03*
D13*
G01*
X18400013Y6245987D03*
G01*
X18400013Y6499987D03*
G01*
X18400013Y6753987D03*
D16*
G01*
X18400013Y7007987D03*
D17*
G01*
X13845997Y6599986D03*
G01*
X14353997Y6599986D03*
D13*
G01*
X11600002Y6299987D03*
G01*
X11854002Y6299987D03*
G01*
X12108002Y6299987D03*
G01*
X12362002Y6299987D03*
G01*
X12616002Y6299987D03*
G01*
X12870002Y6299987D03*
G01*
X11089944Y3489934D03*
G01*
X11300002Y3489934D03*
G01*
X11510060Y3489934D03*
G01*
X11510060Y3910050D03*
G01*
X11300002Y3910050D03*
G01*
X11089944Y3910050D03*
G01*
X16589933Y4489932D03*
G01*
X16799991Y4489932D03*
G01*
X17010049Y4489932D03*
G01*
X17010049Y4910048D03*
G01*
X16799991Y4910048D03*
G01*
X16589933Y4910048D03*
D10*
G01*
X14299996Y9000007D03*
G01*
X13283996Y9000007D03*
D12*
G01*
X16010991Y6318986D03*
D13*
G01*
X16264991Y6318986D03*
G01*
X16518991Y6318986D03*
G01*
X16772991Y6318986D03*
G01*
X17026991Y6318986D03*
G01*
X17280991Y6318986D03*
G01*
X17534991Y6318986D03*
G01*
X17788991Y6318986D03*
G01*
X17788991Y7080986D03*
G01*
X17534991Y7080986D03*
G01*
X17280991Y7080986D03*
G01*
X17026991Y7080986D03*
G01*
X16772991Y7080986D03*
G01*
X16518991Y7080986D03*
G01*
X16264991Y7080986D03*
G01*
X16010991Y7080986D03*
D18*
G01*
X14395399Y7100011D03*
G01*
X14649399Y7100011D03*
G01*
X14903399Y7100011D03*
G01*
X14395399Y8500008D03*
M02*
